<svg width="13" height="10" viewBox="0 0 13 10" fill="none" xmlns="http://www.w3.org/2000/svg">
<path d="M0.5 0.999956C0.5 0.723838 0.723838 0.5 0.999956 0.5H1.00583H1.01172H1.01764H1.02357H1.02954H1.03552H1.04152H1.04755H1.0536H1.05967H1.06577H1.07188H1.07802H1.08418H1.09036H1.09656H1.10278H1.10902H1.11528H1.12157H1.12787H1.1342H1.14054H1.14691H1.1533H1.1597H1.16613H1.17258H1.17904H1.18553H1.19203H1.19856H1.2051H1.21167H1.21825H1.22485H1.23147H1.23811H1.24477H1.25144H1.25814H1.26485H1.27158H1.27833H1.2851H1.29188H1.29868H1.3055H1.31234H1.3192H1.32607H1.33296H1.33987H1.34679H1.35373H1.36069H1.36766H1.37465H1.38166H1.38868H1.39572H1.40278H1.40985H1.41694H1.42404H1.43116H1.43829H1.44544H1.45261H1.45979H1.46698H1.47419H1.48142H1.48866H1.49591H1.50318H1.51046H1.51776H1.52507H1.5324H1.53974H1.54709H1.55446H1.56184H1.56924H1.57664H1.58406H1.5915H1.59895H1.60641H1.61388H1.62136H1.62886H1.63637H1.6439H1.65143H1.65898H1.66654H1.67411H1.6817H1.68929H1.6969H1.70452H1.71215H1.71979H1.72744H1.7351H1.74278H1.75046H1.75816H1.76586H1.77358H1.78131H1.78904H1.79679H1.80455H1.81232H1.82009H1.82788H1.83568H1.84348H1.8513H1.85912H1.86696H1.8748H1.88265H1.89051H1.89838H1.90626H1.91415H1.92204H1.92994H1.93785H1.94577H1.9537H1.96164H1.96958H1.97753H1.98549H1.99345H2.00142H2.0094H2.01739H2.02538H2.03338H2.04139H2.0494H2.05742H2.06545H2.07348H2.08152H2.08956H2.09761H2.10567H2.11373H2.1218H2.12987H2.13795H2.14603H2.15412H2.16222H2.17031H2.17842H2.18652H2.19464H2.20275H2.21088H2.219H2.22713H2.23526H2.2434H2.25154H2.25969H2.26784H2.27599H2.28414H2.2923H2.30046H2.30863H2.3168H2.32497H2.33314H2.34131H2.34949H2.35767H2.36585H2.37404H2.38223H2.39041H2.3986H2.4068H2.41499H2.42318H2.43138H2.43958H2.44778H2.45598H2.46418H2.47238H2.48058H2.48878H2.49698H2.50519H2.51339H2.52159H2.5298H2.538H2.5462H2.5544H2.56261H2.57081H2.57901H2.58721H2.59541H2.60361H2.6118H2.62H2.62819H2.63639H2.64458H2.65277H2.66095H2.66914H2.67732H2.68551H2.69368H2.70186H2.71004H2.71821H2.72638H2.73454H2.74271H2.75087H2.75902H2.76718H2.77533H2.78348H2.79162H2.79976H2.8079H2.81603H2.82416H2.83228H2.8404H2.84852H2.85663H2.86473H2.87283H2.88093H2.88902H2.89711H2.90519H2.91327H2.92134H2.9294H2.93746H2.94552H2.95356H2.96161H2.96964H2.97767H2.9857H2.99371H3.00172H3.00973H3.01773H3.02572H3.0337H3.04168H3.04965H3.05761H3.06556H3.07351H3.08145H3.08938H3.0973H3.10522H3.11313H3.12103H3.12892H3.1368H3.14468H3.15254H3.1604H3.16825H3.17609H3.18392H3.19174H3.19955H3.20735H3.21515H3.22293H3.2307H3.23847H3.24622H3.25397H3.2617H3.26942H3.27713H3.28484H3.29253H3.30021H3.30788H3.31554H3.32319H3.33082H3.33845H3.34606H3.35366H3.36126H3.36883H3.3764H3.38396H3.3915H3.39903H3.40655H3.41406H3.42155H3.42903H3.4365H3.44395H3.4514H3.45882H3.46624H3.47364H3.48103H3.48841H3.49577H3.50312H3.51045H3.51777H3.52508H3.53237H3.53965H3.54691H3.55416H3.5614H3.56862H3.57582H3.58301H3.59018H3.59734H3.60449H3.61161H3.61873H3.62582H3.63291H3.63997H3.64702H3.65405H3.66107H3.66807H3.67506H3.68202H3.68897H3.69591H3.70283H3.70973H3.71661H3.72348H3.73032H3.73716H3.74397H3.75077H3.75754H3.7643H3.77105H3.77777H3.78448H3.79116H3.79783H3.80448H3.81112H3.81773H3.82432H3.8309H3.83745H3.84399H3.85051H3.857H3.86348H3.86994H3.87638H3.8828H3.8892H3.89558H3.90194H3.90827H3.91459H3.92089H3.92716H3.93342H3.93965H3.94587H3.95206H3.95823H3.96438H3.97051H3.97662H3.9827H3.98876H3.99481H4.00082H4.00682H4.0128H4.01875H4.02468H4.03059H4.03647H4.04233H4.04817H4.05399H4.05978H4.06555H4.0713H4.07702H4.08272H4.08839H4.09404H4.09967H4.10527H4.11085H4.11641H4.12194H4.12745H4.13293H4.13838H4.14382H4.14922H4.1546H4.15996H4.16529H4.1706H4.17588H4.18113H4.18636H4.19157H4.19674H4.2019H4.20702H4.21212H4.21719H4.22224H4.22726H4.23225H4.23722H4.24216H4.24707H4.25195H4.25681H4.26164H4.26644H4.27122H4.27596H4.28068H4.28537H4.29004H4.29467H4.29928H4.30386H4.30841H4.31293H4.31742H4.32188H4.32632H4.33072H4.3351H4.33945H4.34376H4.34805H4.35231H4.35654H4.36074H4.3649H4.36904H4.37315H4.37723H4.38128H4.38529H4.38928H4.39324H4.39716H4.40106H4.40492H4.40875H4.41255H4.41632H4.42006H4.42376H4.42744H4.43108H4.43469H4.43827H4.44181H4.44533H4.44881H4.45225H4.45567H4.45905H4.4624H4.46572H4.46901H4.47226H4.47547H4.47866H4.48181H4.48492H4.48801H4.49106H4.49407H4.49705H4.5C4.80755 0.5 4.9127 0.549567 4.93436 0.562289C4.93766 0.569924 4.94379 0.586698 4.95243 0.621268C4.95315 0.62415 4.95515 0.632916 4.95802 0.645429C4.96781 0.688244 4.98764 0.774928 5.00038 0.819895C5.02451 0.905047 5.06675 1.0265 5.15469 1.14375C5.35868 1.41573 5.67216 1.5 6 1.5H6.00587H6.01176H6.01768H6.02362H6.02958H6.03557H6.04157H6.0476H6.05365H6.05973H6.06582H6.07194H6.07808H6.08424H6.09043H6.09663H6.10286H6.10911H6.11538H6.12168H6.12799H6.13433H6.14068H6.14706H6.15346H6.15988H6.16633H6.17279H6.17927H6.18578H6.19231H6.19885H6.20542H6.21201H6.21862H6.22525H6.2319H6.23857H6.24526H6.25197H6.2587H6.26545H6.27222H6.27902H6.28583H6.29266H6.29951H6.30638H6.31327H6.32018H6.32711H6.33406H6.34103H6.34802H6.35502H6.36205H6.3691H6.37616H6.38324H6.39035H6.39747H6.40461H6.41177H6.41895H6.42614H6.43336H6.44059H6.44784H6.45511H6.4624H6.46971H6.47703H6.48437H6.49173H6.49911H6.50651H6.51392H6.52135H6.5288H6.53627H6.54375H6.55126H6.55878H6.56631H6.57387H6.58144H6.58903H6.59663H6.60425H6.61189H6.61955H6.62722H6.63491H6.64262H6.65034H6.65808H6.66584H6.67361H6.6814H6.6892H6.69702H6.70486H6.71271H6.72058H6.72847H6.73637H6.74429H6.75222H6.76017H6.76813H6.77611H6.7841H6.79211H6.80014H6.80818H6.81623H6.82431H6.83239H6.84049H6.84861H6.85674H6.86488H6.87304H6.88122H6.88941H6.89761H6.90583H6.91406H6.92231H6.93057H6.93885H6.94713H6.95544H6.96376H6.97209H6.98043H6.98879H6.99716H7.00555H7.01395H7.02236H7.03079H7.03923H7.04768H7.05615H7.06463H7.07312H7.08163H7.09015H7.09868H7.10722H7.11578H7.12435H7.13293H7.14153H7.15014H7.15876H7.16739H7.17604H7.18469H7.19336H7.20204H7.21074H7.21944H7.22816H7.23689H7.24563H7.25438H7.26315H7.27192H7.28071H7.28951H7.29832H7.30714H7.31597H7.32481H7.33367H7.34253H7.35141H7.3603H7.3692H7.37811H7.38703H7.39596H7.4049H7.41385H7.42281H7.43178H7.44076H7.44976H7.45876H7.46777H7.4768H7.48583H7.49487H7.50392H7.51299H7.52206H7.53114H7.54023H7.54933H7.55844H7.56756H7.57669H7.58583H7.59498H7.60413H7.6133H7.62247H7.63165H7.64085H7.65005H7.65925H7.66847H7.6777H7.68693H7.69618H7.70543H7.71469H7.72396H7.73323H7.74252H7.75181H7.76111H7.77042H7.77973H7.78906H7.79839H7.80773H7.81707H7.82643H7.83579H7.84516H7.85453H7.86391H7.8733H7.8827H7.89211H7.90152H7.91093H7.92036H7.92979H7.93923H7.94867H7.95812H7.96758H7.97705H7.98652H7.99599H8.00548H8.01497H8.02446H8.03396H8.04347H8.05298H8.0625H8.07202H8.08155H8.09109H8.10063H8.11018H8.11973H8.12929H8.13885H8.14842H8.15799H8.16757H8.17715H8.18674H8.19633H8.20593H8.21553H8.22514H8.23475H8.24436H8.25398H8.26361H8.27324H8.28287H8.29251H8.30215H8.3118H8.32145H8.3311H8.34076H8.35042H8.36008H8.36975H8.37942H8.3891H8.39878H8.40846H8.41815H8.42783H8.43753H8.44722H8.45692H8.46662H8.47633H8.48603H8.49574H8.50545H8.51517H8.52489H8.53461H8.54433H8.55405H8.56378H8.57351H8.58324H8.59298H8.60271H8.61245H8.62219H8.63193H8.64167H8.65142H8.66117H8.67091H8.68066H8.69042H8.70017H8.70992H8.71968H8.72943H8.73919H8.74895H8.75871H8.76847H8.77823H8.78799H8.79775H8.80752H8.81728H8.82704H8.83681H8.84657H8.85634H8.8661H8.87587H8.88563H8.8954H8.90516H8.91493H8.9247H8.93446H8.94423H8.95399H8.96375H8.97352H8.98328H8.99304H9.0028H9.01256H9.02232H9.03208H9.04184H9.0516H9.06135H9.07111H9.08086H9.09061H9.10036H9.11011H9.11986H9.12961H9.13935H9.14909H9.15883H9.16857H9.17831H9.18805H9.19778H9.20751H9.21724H9.22696H9.23669H9.24641H9.25613H9.26585H9.27556H9.28527H9.29498H9.30469H9.31439H9.32409H9.33379H9.34348H9.35317H9.36286H9.37255H9.38223H9.3919H9.40158H9.41125H9.42092H9.43058H9.44024H9.4499H9.45955H9.4692H9.47884H9.48848H9.49812H9.50775H9.51738H9.527H9.53662H9.54623H9.55584H9.56545H9.57505H9.58465H9.59424H9.60382H9.6134H9.62298H9.63255H9.64212H9.65168H9.66123H9.67078H9.68033H9.68987H9.6994H9.70893H9.71845H9.72797H9.73748H9.74698H9.75648H9.76598H9.77546H9.78494H9.79442H9.80389H9.81335H9.8228H9.83225H9.8417H9.85113H9.86056H9.86998H9.8794H9.88881H9.89821H9.9076H9.91699H9.92637H9.93575H9.94511H9.95447H9.96382H9.97317H9.9825H9.99183H10.0012H10.0105H10.0198H10.0291H10.0384H10.0476H10.0569H10.0662H10.0754H10.0847H10.0939H10.1032H10.1124H10.1216H10.1308H10.14H10.1492H10.1584H10.1675H10.1767H10.1859H10.195H10.2041H10.2133H10.2224H10.2315H10.2406H10.2497H10.2587H10.2678H10.2769H10.2859H10.295H10.304H10.313H10.322H10.331H10.34H10.349H10.358H10.3669H10.3759H10.3848H10.3937H10.4026H10.4115H10.4204H10.4293H10.4382H10.4471H10.4559H10.4648H10.4736H10.4824H10.4912H10.5C11.2116 1.5 11.7104 1.6219 12.0219 1.84437C12.2997 2.04282 12.5 2.37329 12.5 3V7.0625L12.5 9.11719L12.5 9.5H0.5V0.999956Z" stroke="black"/>
<path d="M0.5 0.999956C0.5 0.723838 0.723838 0.5 0.999956 0.5H1.00583H1.01172H1.01764H1.02357H1.02954H1.03552H1.04153H1.04755H1.0536H1.05968H1.06577H1.07189H1.07803H1.08419H1.09037H1.09657H1.1028H1.10904H1.11531H1.1216H1.12791H1.13424H1.14059H1.14696H1.15335H1.15977H1.1662H1.17266H1.17913H1.18563H1.19214H1.19868H1.20524H1.21181H1.21841H1.22502H1.23166H1.23831H1.24499H1.25168H1.25839H1.26512H1.27188H1.27865H1.28544H1.29224H1.29907H1.30592H1.31278H1.31966H1.32656H1.33348H1.34042H1.34738H1.35435H1.36134H1.36835H1.37538H1.38243H1.38949H1.39657H1.40367H1.41078H1.41791H1.42506H1.43223H1.43941H1.44661H1.45383H1.46107H1.46832H1.47558H1.48287H1.49017H1.49748H1.50482H1.51217H1.51953H1.52691H1.53431H1.54172H1.54915H1.55659H1.56405H1.57152H1.57901H1.58652H1.59404H1.60157H1.60912H1.61669H1.62427H1.63186H1.63947H1.64709H1.65473H1.66238H1.67005H1.67773H1.68542H1.69313H1.70085H1.70859H1.71634H1.7241H1.73188H1.73967H1.74747H1.75529H1.76312H1.77096H1.77881H1.78668H1.79456H1.80246H1.81036H1.81828H1.82621H1.83416H1.84211H1.85008H1.85806H1.86606H1.87406H1.88208H1.8901H1.89814H1.90619H1.91426H1.92233H1.93042H1.93851H1.94662H1.95474H1.96287H1.97101H1.97916H1.98732H1.99549H2.00367H2.01187H2.02007H2.02828H2.03651H2.04474H2.05298H2.06124H2.0695H2.07777H2.08605H2.09434H2.10265H2.11096H2.11928H2.1276H2.13594H2.14429H2.15264H2.16101H2.16938H2.17776H2.18615H2.19455H2.20296H2.21137H2.21979H2.22823H2.23666H2.24511H2.25357H2.26203H2.2705H2.27898H2.28746H2.29595H2.30445H2.31296H2.32147H2.32999H2.33852H2.34706H2.3556H2.36414H2.3727H2.38126H2.38983H2.3984H2.40698H2.41556H2.42416H2.43275H2.44136H2.44997H2.45858H2.4672H2.47583H2.48446H2.49309H2.50173H2.51038H2.51903H2.52769H2.53635H2.54502H2.55369H2.56236H2.57104H2.57973H2.58841H2.59711H2.6058H2.6145H2.62321H2.63192H2.64063H2.64935H2.65807H2.66679H2.67551H2.68424H2.69298H2.70171H2.71045H2.71919H2.72794H2.73669H2.74544H2.75419H2.76295H2.7717H2.78046H2.78923H2.79799H2.80676H2.81553H2.8243H2.83307H2.84184H2.85062H2.85939H2.86817H2.87695H2.88573H2.89452H2.9033H2.91208H2.92087H2.92966H2.93844H2.94723H2.95602H2.96481H2.97359H2.98238H2.99117H2.99996H3.00875H3.01754H3.02633H3.03512H3.04391H3.05269H3.06148H3.07027H3.07905H3.08784H3.09662H3.10541H3.11419H3.12297H3.13175H3.14053H3.14931H3.15808H3.16686H3.17563H3.1844H3.19317H3.20193H3.2107H3.21946H3.22822H3.23698H3.24573H3.25449H3.26324H3.27198H3.28073H3.28947H3.29821H3.30695H3.31568H3.32441H3.33314H3.34186H3.35058H3.35929H3.36801H3.37672H3.38542H3.39412H3.40282H3.41151H3.4202H3.42888H3.43756H3.44624H3.45491H3.46357H3.47224H3.48089H3.48954H3.49819H3.50683H3.51547H3.5241H3.53272H3.54134H3.54996H3.55857H3.56717H3.57577H3.58436H3.59295H3.60153H3.6101H3.61867H3.62723H3.63578H3.64433H3.65287H3.6614H3.66993H3.67845H3.68697H3.69547H3.70397H3.71247H3.72095H3.72943H3.7379H3.74636H3.75482H3.76326H3.7717H3.78013H3.78856H3.79697H3.80538H3.81378H3.82217H3.83055H3.83892H3.84728H3.85564H3.86399H3.87232H3.88065H3.88897H3.89728H3.90558H3.91388H3.92216H3.93043H3.93869H3.94695H3.95519H3.96342H3.97165H3.97986H3.98806H3.99626H4.00444H4.01261H4.02077H4.02892H4.03706H4.04519H4.05331H4.06142H4.06952H4.0776H4.08567H4.09374H4.10179H4.10983H4.11786H4.12587H4.13388H4.14187H4.14985H4.15782H4.16577H4.17372H4.18165H4.18957H4.19748H4.20537H4.21325H4.22112H4.22898H4.23682H4.24465H4.25247H4.26027H4.26806H4.27584H4.2836H4.29135H4.29908H4.30681H4.31451H4.32221H4.32989H4.33755H4.34521H4.35284H4.36047H4.36808H4.37567H4.38325H4.39082H4.39837H4.4059H4.41342H4.42092H4.42841H4.43589H4.44335H4.45079H4.45822H4.46563H4.47303H4.48041H4.48777H4.49512H4.50246H4.50977H4.51707H4.52436H4.53162H4.53887H4.54611H4.55333H4.56053H4.56771H4.57488H4.58203H4.58916H4.59628H4.60337H4.61045H4.61752H4.62456H4.63159H4.6386H4.64559H4.65257H4.65952H4.66646H4.67338H4.68028H4.68716H4.69403H4.70087H4.7077H4.71451H4.7213H4.72807H4.73482H4.74155H4.74827H4.75496H4.76163H4.76829H4.77492H4.78154H4.78814H4.79471H4.80127H4.8078H4.81432H4.82082H4.82729H4.83375H4.84018H4.8466H4.85299H4.85936H4.86571H4.87204H4.87835H4.88464H4.89091H4.89716H4.90338H4.90958H4.91577H4.92193H4.92807H4.93418H4.94028H4.94635H4.9524H4.95843H4.96444H4.97042H4.97075C4.98577 0.520985 5.01026 0.563034 5.03754 0.638572C5.1142 0.850885 5.15791 1.16575 5.18923 1.54152C5.19842 1.65189 5.20666 1.77059 5.21499 1.89078C5.23239 2.1415 5.25022 2.39866 5.27819 2.60004C5.29892 2.74928 5.33144 2.924 5.39691 3.07265C5.45459 3.2036 5.62666 3.5 5.99999 3.50001H10H12.5L12.5 6.81251L12.5 9.02344V9.5H0.5V0.999956Z" stroke="black"/>
</svg>
