<svg width="11" height="10" viewBox="0 0 11 10" fill="none" xmlns="http://www.w3.org/2000/svg">
<path d="M10.5 9.5H0.5V0.846117C0.5 0.654962 0.654962 0.5 0.846117 0.5H0.851084H0.856071H0.861076H0.866101H0.871145H0.876208H0.88129H0.88639H0.891509H0.896646H0.901802H0.906977H0.912169H0.917379H0.922608H0.927855H0.933119H0.938401H0.943701H0.949019H0.954354H0.959706H0.965075H0.970462H0.975866H0.981287H0.986725H0.992179H0.997651H1.00314H1.00864H1.01416H1.0197H1.02525H1.03082H1.03641H1.04201H1.04763H1.05326H1.05891H1.06458H1.07026H1.07595H1.08166H1.08739H1.09313H1.09889H1.10466H1.11044H1.11624H1.12206H1.12789H1.13373H1.13959H1.14546H1.15135H1.15725H1.16317H1.1691H1.17504H1.181H1.18697H1.19295H1.19895H1.20496H1.21098H1.21702H1.22307H1.22913H1.23521H1.24129H1.24739H1.25351H1.25963H1.26577H1.27192H1.27809H1.28426H1.29045H1.29665H1.30286H1.30908H1.31531H1.32156H1.32781H1.33408H1.34036H1.34665H1.35295H1.35927H1.36559H1.37192H1.37827H1.38462H1.39099H1.39737H1.40375H1.41015H1.41656H1.42297H1.4294H1.43584H1.44228H1.44874H1.4552H1.46168H1.46816H1.47466H1.48116H1.48767H1.49419H1.50072H1.50726H1.51381H1.52036H1.52693H1.5335H1.54008H1.54667H1.55327H1.55987H1.56648H1.5731H1.57973H1.58637H1.59301H1.59966H1.60632H1.61299H1.61966H1.62634H1.63303H1.63972H1.64642H1.65313H1.65985H1.66657H1.67329H1.68003H1.68677H1.69351H1.70026H1.70702H1.71378H1.72055H1.72733H1.73411H1.74089H1.74769H1.75448H1.76128H1.76809H1.7749H1.78172H1.78854H1.79537H1.8022H1.80903H1.81587H1.82272H1.82957H1.83642H1.84328H1.85014H1.857H1.86387H1.87074H1.87762H1.88449H1.89138H1.89826H1.90515H1.91204H1.91894H1.92584H1.93274H1.93964H1.94655H1.95345H1.96037H1.96728H1.97419H1.98111H1.98803H1.99495H2.00188H2.0088H2.01573H2.02266H2.02959H2.03652H2.04345H2.05039H2.05732H2.06426H2.0712H2.07813H2.08507H2.09201H2.09895H2.10589H2.11283H2.11977H2.12671H2.13366H2.1406H2.14754H2.15448H2.16142H2.16836H2.1753H2.18224H2.18918H2.19611H2.20305H2.20999H2.21692H2.22386H2.23079H2.23772H2.24465H2.25158H2.2585H2.26543H2.27235H2.27927H2.28619H2.29311H2.30002H2.30693H2.31384H2.32075H2.32766H2.33456H2.34146H2.34836H2.35525H2.36214H2.36903H2.37591H2.38279H2.38967H2.39654H2.40341H2.41028H2.41714H2.424H2.43086H2.43771H2.44456H2.4514H2.45824H2.46507H2.4719H2.47872H2.48554H2.49236H2.49917H2.50597H2.51277H2.51957H2.52636H2.53314H2.53992H2.54669H2.55346H2.56022H2.56698H2.57373H2.58047H2.58721H2.59394H2.60066H2.60738H2.61409H2.6208H2.62749H2.63419H2.64087H2.64755H2.65422H2.66088H2.66754H2.67419H2.68083H2.68746H2.69409H2.7007H2.70731H2.71392H2.72051H2.7271H2.73367H2.74024H2.7468H2.75336H2.7599H2.76643H2.77296H2.77948H2.78599H2.79248H2.79897H2.80545H2.81193H2.81839H2.82484H2.83128H2.83772H2.84414H2.85055H2.85695H2.86335H2.86973H2.8761H2.88246H2.88882H2.89516H2.90149H2.90781H2.91411H2.92041H2.9267H2.93297H2.93924H2.94549H2.95173H2.95796H2.96418H2.97038H2.97658H2.98276H2.98893H2.99509H3.00123H3.00737H3.01349H3.0196H3.02569H3.03178H3.03785H3.0439H3.04995H3.05598H3.062H3.068H3.074H3.07998H3.08594H3.09189H3.09783H3.10375H3.10966H3.11556H3.12144H3.12731H3.13316H3.139H3.14482H3.15063H3.15643H3.16221H3.16797H3.17372H3.17946H3.18518H3.19088H3.19657H3.20225H3.20791H3.21355H3.21918H3.22479H3.23038H3.23596H3.24153H3.24708H3.25261H3.25812H3.26362H3.2691H3.27457H3.28001H3.28545H3.29086H3.29626H3.30164H3.307H3.31235H3.31767H3.32298H3.32828H3.33355H3.33881H3.34405H3.34927H3.35448H3.35966H3.36483H3.36998H3.37511H3.38022H3.38531H3.39039H3.39544H3.40048H3.4055H3.4105H3.41548H3.42044H3.42538H3.4303H3.4352H3.44008H3.44494H3.44978H3.45461H3.45941H3.46419H3.46895H3.47369H3.47841H3.48311H3.48779H3.49245H3.49709H3.50171H3.50631H3.51088H3.51543H3.51997H3.52448H3.52897H3.53344H3.53788H3.54231H3.54671H3.55109H3.55545H3.55979H3.5641H3.56839H3.57266H3.57691H3.58113H3.58534H3.58952H3.59367H3.5978H3.60191H3.606H3.61006H3.6141H3.61812H3.62211H3.62608H3.63003H3.63395H3.63785H3.64172H3.64557H3.6494H3.6532H3.65698H3.66073H3.66446H3.66816H3.67184H3.67549H3.67912H3.68272H3.6863H3.68985H3.69338H3.69688H3.70036H3.70381H3.70723H3.71063H3.71401H3.71735H3.72067H3.72397H3.72724H3.73048H3.7337H3.73689H3.74005H3.74318H3.74629H3.74937H3.75243H3.75546H3.75846H3.76143H3.76437H3.76729H3.77018H3.77305H3.77588H3.77869H3.78147H3.78422H3.78694H3.78963H3.7923H3.79494H3.79754H3.80012H3.80268H3.8052H3.80769C3.98917 0.5 4.06814 0.525543 4.09438 0.536997C4.09829 0.548149 4.10442 0.56866 4.11179 0.603479C4.11287 0.608612 4.11522 0.620732 4.11834 0.63686C4.12701 0.681647 4.14166 0.757343 4.15192 0.800162C4.17112 0.880237 4.20501 0.996723 4.27796 1.11166C4.45835 1.39592 4.75689 1.5 5.07692 1.5H5.08189H5.08688H5.09188H5.09691H5.10195H5.10702H5.1121H5.1172H5.12232H5.12746H5.13262H5.1378H5.14299H5.14821H5.15344H5.15869H5.16396H5.16925H5.17455H5.17988H5.18522H5.19058H5.19596H5.20136H5.20678H5.21221H5.21766H5.22313H5.22862H5.23412H5.23964H5.24518H5.25074H5.25631H5.26191H5.26752H5.27314H5.27879H5.28445H5.29013H5.29582H5.30154H5.30727H5.31301H5.31878H5.32456H5.33035H5.33617H5.342H5.34785H5.35371H5.35959H5.36549H5.3714H5.37733H5.38327H5.38924H5.39521H5.40121H5.40722H5.41324H5.41928H5.42534H5.43141H5.4375H5.44361H5.44973H5.45586H5.46202H5.46818H5.47437H5.48056H5.48678H5.493H5.49925H5.50551H5.51178H5.51807H5.52437H5.53069H5.53702H5.54337H5.54973H5.55611H5.5625H5.56891H5.57533H5.58176H5.58821H5.59468H5.60116H5.60765H5.61416H5.62068H5.62721H5.63376H5.64032H5.6469H5.65349H5.66009H5.66671H5.67334H5.67999H5.68665H5.69332H5.7H5.7067H5.71341H5.72014H5.72688H5.73363H5.74039H5.74717H5.75396H5.76077H5.76758H5.77441H5.78125H5.78811H5.79498H5.80186H5.80875H5.81565H5.82257H5.8295H5.83644H5.84339H5.85036H5.85734H5.86433H5.87133H5.87834H5.88537H5.89241H5.89946H5.90652H5.91359H5.92068H5.92777H5.93488H5.942H5.94913H5.95627H5.96342H5.97059H5.97776H5.98495H5.99215H5.99936H6.00657H6.0138H6.02105H6.0283H6.03556H6.04283H6.05012H6.05741H6.06471H6.07203H6.07935H6.08669H6.09404H6.10139H6.10876H6.11613H6.12352H6.13092H6.13832H6.14574H6.15316H6.1606H6.16804H6.1755H6.18296H6.19044H6.19792H6.20541H6.21291H6.22042H6.22794H6.23547H6.24301H6.25056H6.25812H6.26568H6.27326H6.28084H6.28843H6.29603H6.30364H6.31126H6.31888H6.32652H6.33416H6.34181H6.34947H6.35714H6.36482H6.3725H6.3802H6.3879H6.3956H6.40332H6.41105H6.41878H6.42652H6.43426H6.44202H6.44978H6.45755H6.46533H6.47311H6.48091H6.48871H6.49651H6.50433H6.51215H6.51998H6.52781H6.53565H6.5435H6.55136H6.55922H6.56709H6.57497H6.58285H6.59074H6.59863H6.60654H6.61444H6.62236H6.63028H6.63821H6.64614H6.65408H6.66203H6.66998H6.67793H6.6859H6.69387H6.70184H6.70982H6.71781H6.7258H6.7338H6.7418H6.74981H6.75782H6.76584H6.77386H6.78189H6.78993H6.79797H6.80601H6.81406H6.82211H6.83017H6.83824H6.84631H6.85438H6.86246H6.87054H6.87863H6.88672H6.89481H6.90291H6.91102H6.91913H6.92724H6.93536H6.94348H6.9516H6.95973H6.96786H6.976H6.98414H6.99228H7.00043H7.00858H7.01674H7.0249H7.03306H7.04122H7.04939H7.05756H7.06574H7.07392H7.0821H7.09028H7.09847H7.10666H7.11485H7.12305H7.13124H7.13944H7.14765H7.15585H7.16406H7.17227H7.18049H7.1887H7.19692H7.20514H7.21337H7.22159H7.22982H7.23805H7.24628H7.25451H7.26274H7.27098H7.27922H7.28746H7.2957H7.30394H7.31219H7.32043H7.32868H7.33693H7.34518H7.35343H7.36168H7.36993H7.37819H7.38644H7.3947H7.40296H7.41121H7.41947H7.42773H7.43599H7.44425H7.45251H7.46077H7.46904H7.4773H7.48556H7.49382H7.50209H7.51035H7.51861H7.52688H7.53514H7.5434H7.55166H7.55993H7.56819H7.57645H7.58471H7.59298H7.60124H7.6095H7.61776H7.62601H7.63427H7.64253H7.65079H7.65904H7.6673H7.67555H7.6838H7.69206H7.70031H7.70856H7.7168H7.72505H7.7333H7.74154H7.74978H7.75802H7.76626H7.7745H7.78273H7.79097H7.7992H7.80743H7.81566H7.82388H7.83211H7.84033H7.84855H7.85677H7.86498H7.8732H7.88141H7.88961H7.89782H7.90602H7.91422H7.92242H7.93061H7.93881H7.947H7.95518H7.96336H7.97154H7.97972H7.9879H7.99607H8.00423H8.0124H8.02056H8.02871H8.03687H8.04502H8.05316H8.06131H8.06945H8.07758H8.08571H8.09384H8.10196H8.11008H8.1182H8.12631H8.13442H8.14252H8.15062H8.15871H8.1668H8.17489H8.18297H8.19105H8.19912H8.20718H8.21525H8.2233H8.23136H8.2394H8.24745H8.25548H8.26352H8.27154H8.27957H8.28758H8.2956H8.3036H8.3116H8.3196H8.32759H8.33557H8.34355H8.35152H8.35949H8.36745H8.37541H8.38336H8.3913H8.39924H8.40717H8.41509H8.42301H8.43093H8.43883H8.44673H8.45463H8.46251H8.47039H8.47827H8.48613H8.49399H8.50185H8.50969H8.51753H8.52537H8.53319H8.54101H8.54882H8.55663H8.56442H8.57221H8.58H8.58777H8.59554H8.6033H8.61105H8.6188H8.62653H8.63426H8.64199H8.6497H8.6574H8.6651H8.67279H8.68047H8.68815H8.69581H8.70347H8.71112H8.71876H8.72639H8.73402H8.74163H8.74924H8.75683H8.76442H8.772H8.77957H8.78714H8.79469H8.80223H8.80977H8.8173H8.82481H8.83232H8.83982H8.84731H8.85479H8.86226H8.86972H8.87717H8.88461C9.46783 1.5 9.85616 1.61733 10.0957 1.81957C10.3182 2.00734 10.5 2.34394 10.5 3V7.0625L10.5 9.11719V9.5Z" stroke="black"/>
<path d="M10.5 9.5H0.5V0.846117C0.5 0.654962 0.654962 0.5 0.846117 0.5H0.851084H0.856071H0.861077H0.866102H0.871146H0.876209H0.881291H0.886392H0.891511H0.89665H0.901806H0.906982H0.912176H0.917388H0.922619H0.927868H0.933135H0.93842H0.943723H0.949044H0.954383H0.959739H0.965114H0.970506H0.975915H0.981342H0.986787H0.992249H0.997728H1.00322H1.00874H1.01427H1.01981H1.02538H1.03096H1.03656H1.04217H1.0478H1.05345H1.05911H1.06479H1.07049H1.0762H1.08193H1.08768H1.09344H1.09921H1.10501H1.11081H1.11664H1.12248H1.12833H1.1342H1.14009H1.14599H1.15191H1.15784H1.16378H1.16974H1.17572H1.18171H1.18772H1.19374H1.19977H1.20582H1.21189H1.21797H1.22406H1.23017H1.23629H1.24242H1.24857H1.25473H1.26091H1.2671H1.27331H1.27952H1.28576H1.292H1.29826H1.30453H1.31082H1.31711H1.32343H1.32975H1.33609H1.34244H1.3488H1.35518H1.36156H1.36797H1.37438H1.3808H1.38724H1.39369H1.40016H1.40663H1.41312H1.41961H1.42613H1.43265H1.43918H1.44573H1.45228H1.45885H1.46543H1.47202H1.47863H1.48524H1.49187H1.4985H1.50515H1.51181H1.51848H1.52516H1.53185H1.53855H1.54526H1.55198H1.55871H1.56545H1.57221H1.57897H1.58574H1.59253H1.59932H1.60612H1.61293H1.61976H1.62659H1.63343H1.64028H1.64714H1.65401H1.66089H1.66777H1.67467H1.68158H1.68849H1.69542H1.70235H1.70929H1.71624H1.7232H1.73016H1.73714H1.74412H1.75111H1.75811H1.76512H1.77214H1.77916H1.78619H1.79323H1.80028H1.80733H1.8144H1.82147H1.82854H1.83563H1.84272H1.84982H1.85693H1.86404H1.87116H1.87829H1.88542H1.89256H1.89971H1.90686H1.91402H1.92119H1.92836H1.93554H1.94273H1.94992H1.95712H1.96432H1.97153H1.97875H1.98597H1.9932H2.00043H2.00767H2.01491H2.02216H2.02941H2.03667H2.04394H2.05121H2.05848H2.06576H2.07305H2.08034H2.08763H2.09493H2.10223H2.10954H2.11685H2.12417H2.13149H2.13881H2.14614H2.15348H2.16081H2.16815H2.1755H2.18284H2.1902H2.19755H2.20491H2.21227H2.21964H2.22701H2.23438H2.24175H2.24913H2.25651H2.2639H2.27128H2.27867H2.28606H2.29346H2.30086H2.30826H2.31566H2.32306H2.33047H2.33788H2.34529H2.3527H2.36011H2.36753H2.37495H2.38237H2.38979H2.39721H2.40464H2.41206H2.41949H2.42692H2.43434H2.44177H2.44921H2.45664H2.46407H2.4715H2.47894H2.48637H2.49381H2.50125H2.50868H2.51612H2.52355H2.53099H2.53843H2.54587H2.5533H2.56074H2.56818H2.57561H2.58305H2.59048H2.59792H2.60535H2.61279H2.62022H2.62765H2.63508H2.64251H2.64994H2.65737H2.6648H2.67222H2.67965H2.68707H2.69449H2.70191H2.70933H2.71674H2.72416H2.73157H2.73898H2.74639H2.7538H2.7612H2.7686H2.776H2.7834H2.79079H2.79819H2.80557H2.81296H2.82035H2.82773H2.8351H2.84248H2.84985H2.85722H2.86459H2.87195H2.87931H2.88666H2.89401H2.90136H2.90871H2.91605H2.92338H2.93072H2.93805H2.94537H2.95269H2.96001H2.96732H2.97463H2.98193H2.98923H2.99652H3.00381H3.0111H3.01838H3.02565H3.03292H3.04018H3.04744H3.0547H3.06195H3.06919H3.07643H3.08366H3.09089H3.09811H3.10533H3.11254H3.11974H3.12694H3.13413H3.14132H3.1485H3.15567H3.16284H3.17H3.17715H3.1843H3.19144H3.19857H3.2057H3.21282H3.21993H3.22704H3.23414H3.24123H3.24832H3.25539H3.26246H3.26953H3.27658H3.28363H3.29067H3.2977H3.30472H3.31174H3.31875H3.32575H3.33274H3.33972H3.3467H3.35367H3.36062H3.36757H3.37452H3.38145H3.38837H3.39529H3.40219H3.40909H3.41598H3.42286H3.42972H3.43658H3.44344H3.45028H3.45711H3.46393H3.47074H3.47755H3.48434H3.49112H3.49789H3.50466H3.51141H3.51815H3.52489H3.53161H3.53832H3.54502H3.55171H3.55839H3.56506H3.57172H3.57836H3.585H3.59163H3.59824H3.60484H3.61143H3.61801H3.62458H3.63114H3.63769H3.64422H3.65074H3.65725H3.66375H3.67024H3.67671H3.68318H3.68963H3.69606H3.70249H3.7089H3.7153H3.72169H3.72807H3.73443H3.74078H3.74712H3.75344H3.75976H3.76605H3.77234H3.77861H3.78487H3.79111H3.79735H3.80356H3.80977H3.81596H3.82214H3.8283H3.83445H3.84059H3.84671H3.85281H3.85891H3.86499H3.87105H3.8771H3.88314H3.88916H3.89516H3.90115H3.90713H3.91309H3.91904H3.92497H3.93089H3.93679H3.94267H3.94854H3.9544H3.96024H3.96606H3.97187H3.97766H3.98344H3.9892H3.99495H4.00067H4.00639H4.01208H4.01776H4.02343H4.02908H4.03471H4.04032H4.04592H4.0515H4.05706H4.06261H4.06814H4.07366H4.07915H4.08463H4.09009H4.09554H4.10096H4.10637H4.11177H4.11714H4.1225H4.12784H4.13316H4.13846H4.13931C4.15131 0.525387 4.16629 0.562529 4.18228 0.614859C4.24977 0.835752 4.28721 1.15892 4.31374 1.53517C4.32171 1.6482 4.32876 1.76843 4.33586 1.88939C4.35047 2.13851 4.36526 2.39075 4.38863 2.58961C4.40593 2.73683 4.43256 2.90427 4.48528 3.04572C4.51144 3.11591 4.55702 3.21629 4.64013 3.30605C4.73331 3.40667 4.88207 3.50001 5.0769 3.50001H8.46154H10.5L10.5 6.81251L10.5 9.02344V9.5Z" stroke="black"/>
</svg>
