<svg width="16" height="14" viewBox="0 0 16 14" fill="none" xmlns="http://www.w3.org/2000/svg">
<path fill-rule="evenodd" clip-rule="evenodd" d="M13.225 4.66663C13.225 3.70013 12.4086 2.91663 11.4016 2.91663H6.53921C5.53218 2.91663 4.71582 3.70013 4.71582 4.66663V11.6666C4.71582 12.6332 5.53218 13.4166 6.53921 13.4166H11.4016C12.4086 13.4166 13.225 12.6332 13.225 11.6666V4.66663ZM12.0094 4.66663C12.0094 4.34446 11.7373 4.08329 11.4016 4.08329H6.53921C6.20353 4.08329 5.93141 4.34446 5.93141 4.66663V11.6666C5.93141 11.9888 6.20353 12.25 6.53921 12.25H11.4016C11.7373 12.25 12.0094 11.9888 12.0094 11.6666V4.66663Z" fill="#0F0F0F"/>
<path d="M4.10806 1.75004H10.186C10.5217 1.75004 10.7938 1.48887 10.7938 1.16671C10.7938 0.844544 10.5217 0.583374 10.186 0.583374H4.10806C3.10103 0.583374 2.28467 1.36688 2.28467 2.33337V10.5C2.28467 10.8222 2.55679 11.0834 2.89246 11.0834C3.22814 11.0834 3.50026 10.8222 3.50026 10.5V2.33337C3.50026 2.01121 3.77238 1.75004 4.10806 1.75004Z" fill="#0F0F0F"/>
</svg>
