<svg width="14" height="14" viewBox="0 0 14 14" fill="none" xmlns="http://www.w3.org/2000/svg">
<g clip-path="url(#clip0_52_1873)">
<path d="M12.795 11.8241H1.22779L0.0136747 3.55435C-0.038567 3.19848 0.0603568 2.84526 0.285061 2.58517C0.509765 2.32508 0.844894 2.17592 1.20453 2.17592H4.84468C5.42333 2.17592 5.9534 2.54223 6.18437 3.05838H12.8058C13.1667 3.05838 13.5012 3.20819 13.7237 3.46943C13.9463 3.73064 14.041 4.08477 13.9836 4.44099L12.795 11.8241ZM1.99015 10.9417H11.8767L10.9562 6.51242C10.9004 6.24415 10.6001 5.99986 10.3261 5.99986H5.77779L5.41875 3.55432C5.37995 3.29011 5.11171 3.05835 4.84465 3.05835H1.2045C1.09995 3.05835 1.01056 3.09518 0.952789 3.16204C0.895017 3.2289 0.871573 3.32271 0.886752 3.42616L1.99015 10.9417ZM6.54015 5.11739H10.3261C11.0223 5.11739 11.6785 5.65125 11.8202 6.33281L12.364 8.94933L13.1124 4.30071C13.1288 4.19866 13.1074 4.10665 13.052 4.04162C12.9966 3.97661 12.9092 3.94078 12.8058 3.94078H6.36739L6.54015 5.11739Z" fill="black"/>
</g>
<defs>
<clipPath id="clip0_52_1873">
<rect width="14" height="14" fill="white"/>
</clipPath>
</defs>
</svg>
