<svg width="14" height="18" viewBox="0 0 14 18" fill="none" xmlns="http://www.w3.org/2000/svg">
<mask id="mask0_49_1477" style="mask-type:alpha" maskUnits="userSpaceOnUse" x="0" y="4" width="14" height="14">
<path d="M11.9022 8.52308L11.4147 17.4154C11.399 17.7385 11.1159 18 10.7856 18H2.82802C2.49777 18 2.21469 17.7385 2.19896 17.4154L1.71144 8.52308C1.69572 8.18462 1.96307 7.89231 2.30905 7.87692C2.65503 7.86154 2.95384 8.12308 2.96956 8.46154L3.42563 16.7692H10.2037L10.6598 8.46154C10.6755 8.12308 10.9743 7.86154 11.3203 7.87692C11.6506 7.89231 11.9179 8.18462 11.9022 8.52308ZM13.5692 6.46154C13.5692 6.8 13.2861 7.07692 12.9402 7.07692H0.673493C0.327511 7.07692 0.0444336 6.8 0.0444336 6.46154C0.0444336 6.12308 0.327511 5.84615 0.673493 5.84615H4.13332V4.46154C4.13332 4.16923 4.33777 4 4.63657 4H8.97708C9.27589 4 9.48033 4.16923 9.48033 4.46154V5.84615H12.9402C13.2861 5.84615 13.5692 6.12308 13.5692 6.46154ZM5.23418 5.84615H8.37948V5.07692H5.23418V5.84615ZM5.50153 15.8462C5.81606 15.8462 6.05196 15.5538 6.05196 15.2615L5.89469 8.61538C5.89469 8.32308 5.64307 8.07692 5.32854 8.07692C5.02973 8.07692 4.77811 8.32308 4.79384 8.63077L4.9511 15.2923C4.9511 15.5846 5.20272 15.8462 5.50153 15.8462ZM8.0964 15.8462C8.3952 15.8462 8.64683 15.6 8.64683 15.3077L8.80409 8.66154C8.80409 8.36923 8.56819 8.10769 8.26939 8.10769C7.95486 8.10769 7.71896 8.33846 7.70324 8.63077L7.54597 15.2769C7.53025 15.5846 7.78187 15.8462 8.0964 15.8462C8.08067 15.8462 8.08067 15.8462 8.0964 15.8462Z" fill="black"/>
</mask>
<g mask="url(#mask0_49_1477)">
<rect x="-0.977783" y="7.5" width="16.3556" height="12" fill="#111111"/>
</g>
<mask id="mask1_49_1477" style="mask-type:alpha" maskUnits="userSpaceOnUse" x="0" y="0" width="14" height="14">
<path d="M11.9022 4.52308L11.4147 13.4154C11.399 13.7385 11.1159 14 10.7856 14H2.82802C2.49777 14 2.21469 13.7385 2.19896 13.4154L1.71144 4.52308C1.69572 4.18462 1.96307 3.89231 2.30905 3.87692C2.65503 3.86154 2.95384 4.12308 2.96956 4.46154L3.42563 12.7692H10.2038L10.6598 4.46154C10.6755 4.12308 10.9743 3.86154 11.3203 3.87692C11.6506 3.89231 11.9179 4.18462 11.9022 4.52308ZM13.5692 2.46154C13.5692 2.8 13.2861 3.07692 12.9402 3.07692H0.673493C0.32751 3.07692 0.0444336 2.8 0.0444336 2.46154C0.0444336 2.12308 0.32751 1.84615 0.673493 1.84615H4.13332V0.461539C4.13332 0.169231 4.33777 0 4.63657 0H8.97708C9.27589 0 9.48033 0.169231 9.48033 0.461539V1.84615H12.9402C13.2861 1.84615 13.5692 2.12308 13.5692 2.46154ZM5.23418 1.84615H8.37948V1.07692H5.23418V1.84615ZM5.50153 11.8462C5.81606 11.8462 6.05196 11.5538 6.05196 11.2615L5.89469 4.61538C5.89469 4.32308 5.64307 4.07692 5.32854 4.07692C5.02973 4.07692 4.77811 4.32308 4.79384 4.63077L4.9511 11.2923C4.9511 11.5846 5.20272 11.8462 5.50153 11.8462ZM8.0964 11.8462C8.3952 11.8462 8.64683 11.6 8.64683 11.3077L8.80409 4.66154C8.80409 4.36923 8.5682 4.10769 8.26939 4.10769C7.95486 4.10769 7.71896 4.33846 7.70324 4.63077L7.54597 11.2769C7.53025 11.5846 7.78187 11.8462 8.0964 11.8462C8.08067 11.8462 8.08067 11.8462 8.0964 11.8462Z" fill="black"/>
</mask>
<g mask="url(#mask1_49_1477)">
<rect x="-0.977783" y="-1" width="15.3333" height="4.5" fill="#111111"/>
</g>
</svg>
