<svg width="15" height="14" viewBox="0 0 15 14" fill="none" xmlns="http://www.w3.org/2000/svg">
<path d="M12.4578 4.52308L11.9702 13.4154C11.9545 13.7385 11.6714 14 11.3412 14H3.38357C3.05331 14 2.77023 13.7385 2.75451 13.4154L2.26698 4.52308C2.25126 4.18462 2.51861 3.89231 2.86459 3.87692C3.21057 3.86154 3.50938 4.12308 3.5251 4.46154L3.98117 12.7692H10.7593L11.2154 4.46154C11.2311 4.12308 11.5299 3.86154 11.8759 3.87692C12.2061 3.89231 12.4735 4.18462 12.4578 4.52308ZM14.1248 2.46154C14.1248 2.8 13.8417 3.07692 13.4957 3.07692H1.22904C0.883052 3.07692 0.599976 2.8 0.599976 2.46154C0.599976 2.12308 0.883052 1.84615 1.22904 1.84615H4.68886V0.461538C4.68886 0.169231 4.89331 0 5.19211 0H9.53263C9.83143 0 10.0359 0.169231 10.0359 0.461538V1.84615H13.4957C13.8417 1.84615 14.1248 2.12308 14.1248 2.46154ZM5.78972 1.84615H8.93502V1.07692H5.78972V1.84615ZM6.05707 11.8462C6.3716 11.8462 6.6075 11.5538 6.6075 11.2615L6.45023 4.61538C6.45023 4.32308 6.19861 4.07692 5.88408 4.07692C5.58527 4.07692 5.33365 4.32308 5.34938 4.63077L5.50664 11.2923C5.50664 11.5846 5.75827 11.8462 6.05707 11.8462ZM8.65194 11.8462C8.95075 11.8462 9.20237 11.6 9.20237 11.3077L9.35963 4.66154C9.35963 4.36923 9.12374 4.10769 8.82493 4.10769C8.5104 4.10769 8.27451 4.33846 8.25878 4.63077L8.10151 11.2769C8.08579 11.5846 8.33741 11.8462 8.65194 11.8462C8.63622 11.8462 8.63622 11.8462 8.65194 11.8462Z" fill="black"/>
</svg>
