<svg width="14" height="14" viewBox="0 0 14 14" fill="none" xmlns="http://www.w3.org/2000/svg">
<path d="M11.8578 4.52308L11.3703 13.4154C11.3545 13.7385 11.0715 14 10.7412 14H2.78359C2.45333 14 2.17026 13.7385 2.15453 13.4154L1.66701 4.52308C1.65128 4.18462 1.91863 3.89231 2.26462 3.87692C2.6106 3.86154 2.9094 4.12308 2.92513 4.46154L3.3812 12.7692H10.1593L10.6154 4.46154C10.6311 4.12308 10.9299 3.86154 11.2759 3.87692C11.6062 3.89231 11.8735 4.18462 11.8578 4.52308ZM13.5248 2.46154C13.5248 2.8 13.2417 3.07692 12.8957 3.07692H0.62906C0.283077 3.07692 0 2.8 0 2.46154C0 2.12308 0.283077 1.84615 0.62906 1.84615H4.08889V0.461538C4.08889 0.169231 4.29333 0 4.59214 0H8.93265C9.23145 0 9.4359 0.169231 9.4359 0.461538V1.84615H12.8957C13.2417 1.84615 13.5248 2.12308 13.5248 2.46154ZM5.18974 1.84615H8.33504V1.07692H5.18974V1.84615ZM5.45709 11.8462C5.77162 11.8462 6.00752 11.5538 6.00752 11.2615L5.85026 4.61538C5.85026 4.32308 5.59863 4.07692 5.2841 4.07692C4.9853 4.07692 4.73368 4.32308 4.7494 4.63077L4.90667 11.2923C4.90667 11.5846 5.15829 11.8462 5.45709 11.8462ZM8.05197 11.8462C8.35077 11.8462 8.60239 11.6 8.60239 11.3077L8.75966 4.66154C8.75966 4.36923 8.52376 4.10769 8.22496 4.10769C7.91043 4.10769 7.67453 4.33846 7.6588 4.63077L7.50154 11.2769C7.48581 11.5846 7.73744 11.8462 8.05197 11.8462C8.03624 11.8462 8.03624 11.8462 8.05197 11.8462Z" fill="black"/>
</svg>
